<mxfile modified="2022-05-06T02:45:39.164Z" host="app.diagrams.net" agent="5.0 (Windows NT 10.0; Win64; x64) AppleWebKit/537.36 (KHTML, like Gecko) Chrome/100.0.4896.127 Safari/537.36 Edg/100.0.1185.50" etag="FMYfa6hrPVOp1Q6RBOr8" compressed="false" version="17.5.0" type="google">
  <diagram id="n3SKksPdV-N4bOmjKrKf" name="Development/Patterns/OO/SOLID">
    <mxGraphModel grid="1" page="1" gridSize="10" guides="1" tooltips="1" connect="1" arrows="1" fold="1" pageScale="1" pageWidth="827" pageHeight="1169" math="0" shadow="0">
      <root>
        <mxCell id="7G_PbEm9kd98VSfMIWQv-0" />
        <mxCell id="Wme40enz_oUWNpX5_eNP-7" value="Notes" style="" parent="7G_PbEm9kd98VSfMIWQv-0" />
        <mxCell id="7G_PbEm9kd98VSfMIWQv-13" style="edgeStyle=orthogonalEdgeStyle;rounded=0;orthogonalLoop=1;jettySize=auto;html=1;entryX=0.5;entryY=1;entryDx=0;entryDy=0;fontSize=9;strokeColor=#CCCCCC;endArrow=none;endFill=0;" edge="1" parent="Wme40enz_oUWNpX5_eNP-7" source="7G_PbEm9kd98VSfMIWQv-7" target="7G_PbEm9kd98VSfMIWQv-2">
          <mxGeometry relative="1" as="geometry" />
        </mxCell>
        <mxCell id="7G_PbEm9kd98VSfMIWQv-7" value="&lt;div style=&quot;font-size: 12px;&quot;&gt;SOC:&lt;br style=&quot;font-size: 12px;&quot;&gt;&lt;br style=&quot;font-size: 12px;&quot;&gt;An object should have&amp;nbsp;&lt;span style=&quot;font-size: 12px;&quot;&gt;one and only one reason&amp;nbsp;&lt;/span&gt;&lt;span style=&quot;font-size: 12px;&quot;&gt;to change, meaning&amp;nbsp;&lt;/span&gt;&lt;/div&gt;&lt;div style=&quot;font-size: 12px;&quot;&gt;that a class should&amp;nbsp;&amp;nbsp;&lt;span style=&quot;font-size: 12px;&quot;&gt;have only one job.&lt;/span&gt;&lt;/div&gt;" style="shape=note;whiteSpace=wrap;html=1;size=14;verticalAlign=top;align=left;spacingTop=-6;fillColor=none;fontSize=12;strokeColor=#CCCCCC;" vertex="1" parent="Wme40enz_oUWNpX5_eNP-7">
          <mxGeometry x="120" y="280" width="100" height="160" as="geometry" />
        </mxCell>
        <mxCell id="7G_PbEm9kd98VSfMIWQv-9" value="&lt;div style=&quot;font-size: 12px;&quot;&gt;OCP:&lt;br style=&quot;font-size: 12px;&quot;&gt;&lt;br style=&quot;font-size: 12px;&quot;&gt;Objects should be&amp;nbsp;&lt;span style=&quot;font-size: 12px;&quot;&gt;open for extension,&amp;nbsp;&lt;/span&gt;&lt;span style=&quot;font-size: 12px;&quot;&gt;but closed for&amp;nbsp;&lt;/span&gt;&lt;span style=&quot;font-size: 12px;&quot;&gt;modification.&lt;/span&gt;&lt;/div&gt;" style="shape=note;whiteSpace=wrap;html=1;size=14;verticalAlign=top;align=left;spacingTop=-6;fillColor=none;fontSize=12;strokeColor=#CCCCCC;" vertex="1" parent="Wme40enz_oUWNpX5_eNP-7">
          <mxGeometry x="230" y="280" width="100" height="160" as="geometry" />
        </mxCell>
        <mxCell id="7G_PbEm9kd98VSfMIWQv-10" value="&lt;div style=&quot;font-size: 12px;&quot;&gt;LSP:&lt;br style=&quot;font-size: 12px;&quot;&gt;&lt;br style=&quot;font-size: 12px;&quot;&gt;Code to the most&amp;nbsp;&amp;nbsp;&lt;span style=&quot;font-size: 12px;&quot;&gt;abstract&amp;nbsp;&lt;br style=&quot;font-size: 12px;&quot;&gt;&lt;/span&gt;&lt;span style=&quot;font-size: 12px;&quot;&gt;representation&amp;nbsp;&amp;nbsp;&lt;br style=&quot;font-size: 12px;&quot;&gt;&lt;/span&gt;&lt;span style=&quot;font-size: 12px;&quot;&gt;(ie, a base class).&lt;/span&gt;&lt;/div&gt;&lt;div style=&quot;font-size: 12px;&quot;&gt;&lt;br style=&quot;font-size: 12px;&quot;&gt;&lt;/div&gt;" style="shape=note;whiteSpace=wrap;html=1;size=14;verticalAlign=top;align=left;spacingTop=-6;fillColor=none;fontSize=12;strokeColor=#CCCCCC;" vertex="1" parent="Wme40enz_oUWNpX5_eNP-7">
          <mxGeometry x="340" y="280" width="100" height="160" as="geometry" />
        </mxCell>
        <mxCell id="7G_PbEm9kd98VSfMIWQv-11" value="&lt;div style=&quot;font-size: 12px;&quot;&gt;ISP:&lt;br style=&quot;font-size: 12px;&quot;&gt;&lt;br style=&quot;font-size: 12px;&quot;&gt;clients should not&lt;/div&gt;&lt;div style=&quot;font-size: 12px;&quot;&gt;be forced to implement/use&lt;/div&gt;&lt;div style=&quot;font-size: 12px;&quot;&gt;interface/methods&lt;/div&gt;&lt;div style=&quot;font-size: 12px;&quot;&gt;they do not require.&lt;/div&gt;" style="shape=note;whiteSpace=wrap;html=1;size=14;verticalAlign=top;align=left;spacingTop=-6;fillColor=none;fontSize=12;strokeColor=#CCCCCC;" vertex="1" parent="Wme40enz_oUWNpX5_eNP-7">
          <mxGeometry x="450" y="280" width="100" height="160" as="geometry" />
        </mxCell>
        <mxCell id="7G_PbEm9kd98VSfMIWQv-12" value="&lt;div style=&quot;font-size: 12px;&quot;&gt;DIP:&lt;br style=&quot;font-size: 12px;&quot;&gt;&lt;br style=&quot;font-size: 12px;&quot;&gt;Entities must depend&amp;nbsp;&amp;nbsp;&lt;span style=&quot;font-size: 12px;&quot;&gt;on abstractions not&lt;/span&gt;&lt;/div&gt;&lt;div style=&quot;font-size: 12px;&quot;&gt;on concretions.&amp;nbsp;&lt;/div&gt;&lt;div style=&quot;font-size: 12px;&quot;&gt;(JGI).&lt;/div&gt;" style="shape=note;whiteSpace=wrap;html=1;size=14;verticalAlign=top;align=left;spacingTop=-6;fillColor=none;fontSize=12;strokeColor=#CCCCCC;" vertex="1" parent="Wme40enz_oUWNpX5_eNP-7">
          <mxGeometry x="560" y="280" width="100" height="160" as="geometry" />
        </mxCell>
        <mxCell id="7G_PbEm9kd98VSfMIWQv-14" style="edgeStyle=orthogonalEdgeStyle;rounded=0;orthogonalLoop=1;jettySize=auto;html=1;entryX=0.5;entryY=1;entryDx=0;entryDy=0;fontSize=9;strokeColor=#CCCCCC;endArrow=none;endFill=0;exitX=0.5;exitY=0;exitDx=0;exitDy=0;exitPerimeter=0;" edge="1" parent="Wme40enz_oUWNpX5_eNP-7" source="7G_PbEm9kd98VSfMIWQv-9" target="7G_PbEm9kd98VSfMIWQv-4">
          <mxGeometry relative="1" as="geometry">
            <mxPoint x="169.86206896551732" y="290" as="sourcePoint" />
            <mxPoint x="169.86206896551732" y="250" as="targetPoint" />
          </mxGeometry>
        </mxCell>
        <mxCell id="7G_PbEm9kd98VSfMIWQv-15" style="edgeStyle=orthogonalEdgeStyle;rounded=0;orthogonalLoop=1;jettySize=auto;html=1;entryX=0.5;entryY=1;entryDx=0;entryDy=0;fontSize=9;strokeColor=#CCCCCC;endArrow=none;endFill=0;exitX=0.5;exitY=0;exitDx=0;exitDy=0;exitPerimeter=0;" edge="1" parent="Wme40enz_oUWNpX5_eNP-7" source="7G_PbEm9kd98VSfMIWQv-10" target="7G_PbEm9kd98VSfMIWQv-3">
          <mxGeometry relative="1" as="geometry">
            <mxPoint x="289.8620689655173" y="290" as="sourcePoint" />
            <mxPoint x="289.8620689655173" y="250" as="targetPoint" />
          </mxGeometry>
        </mxCell>
        <mxCell id="7G_PbEm9kd98VSfMIWQv-16" style="edgeStyle=orthogonalEdgeStyle;rounded=0;orthogonalLoop=1;jettySize=auto;html=1;entryX=0.5;entryY=1;entryDx=0;entryDy=0;fontSize=9;strokeColor=#CCCCCC;endArrow=none;endFill=0;exitX=0.5;exitY=0;exitDx=0;exitDy=0;exitPerimeter=0;" edge="1" parent="Wme40enz_oUWNpX5_eNP-7" source="7G_PbEm9kd98VSfMIWQv-11" target="7G_PbEm9kd98VSfMIWQv-5">
          <mxGeometry relative="1" as="geometry">
            <mxPoint x="520" y="280" as="sourcePoint" />
            <mxPoint x="409.8620689655172" y="250" as="targetPoint" />
          </mxGeometry>
        </mxCell>
        <mxCell id="7G_PbEm9kd98VSfMIWQv-17" style="edgeStyle=orthogonalEdgeStyle;rounded=0;orthogonalLoop=1;jettySize=auto;html=1;entryX=0.5;entryY=1;entryDx=0;entryDy=0;fontSize=9;strokeColor=#CCCCCC;endArrow=none;endFill=0;exitX=0.5;exitY=0;exitDx=0;exitDy=0;exitPerimeter=0;" edge="1" parent="Wme40enz_oUWNpX5_eNP-7" source="7G_PbEm9kd98VSfMIWQv-12" target="7G_PbEm9kd98VSfMIWQv-6">
          <mxGeometry relative="1" as="geometry">
            <mxPoint x="530" y="290" as="sourcePoint" />
            <mxPoint x="529.8620689655172" y="250" as="targetPoint" />
          </mxGeometry>
        </mxCell>
        <mxCell id="7G_PbEm9kd98VSfMIWQv-1" value="Diagram" style="" parent="7G_PbEm9kd98VSfMIWQv-0" />
        <mxCell id="7G_PbEm9kd98VSfMIWQv-2" value="SOC:&lt;br style=&quot;font-size: 12px;&quot;&gt;Separation of Concerns" style="rounded=0;whiteSpace=wrap;html=1;shadow=0;glass=0;comic=0;strokeColor=#666666;fillColor=#f5f5f5;fontSize=12;align=center;fontColor=#333333;" vertex="1" parent="7G_PbEm9kd98VSfMIWQv-1">
          <mxGeometry x="120" y="200" width="100" height="60" as="geometry" />
        </mxCell>
        <mxCell id="7G_PbEm9kd98VSfMIWQv-3" value="LSP:&lt;br style=&quot;font-size: 12px;&quot;&gt;Liskov&#39;s Segragation&lt;br style=&quot;font-size: 12px;&quot;&gt;Principle" style="rounded=0;whiteSpace=wrap;html=1;shadow=0;glass=0;comic=0;strokeColor=#666666;fillColor=#f5f5f5;fontSize=12;align=center;fontColor=#333333;" vertex="1" parent="7G_PbEm9kd98VSfMIWQv-1">
          <mxGeometry x="340" y="200" width="100" height="60" as="geometry" />
        </mxCell>
        <mxCell id="7G_PbEm9kd98VSfMIWQv-4" value="OCP:&lt;br style=&quot;font-size: 12px;&quot;&gt;Open/Cose Principle" style="rounded=0;whiteSpace=wrap;html=1;shadow=0;glass=0;comic=0;strokeColor=#666666;fillColor=#f5f5f5;fontSize=12;align=center;fontColor=#333333;" vertex="1" parent="7G_PbEm9kd98VSfMIWQv-1">
          <mxGeometry x="230" y="200" width="100" height="60" as="geometry" />
        </mxCell>
        <mxCell id="7G_PbEm9kd98VSfMIWQv-5" value="ISP:&lt;br style=&quot;font-size: 12px;&quot;&gt;Interface Segragation Principle" style="rounded=0;whiteSpace=wrap;html=1;shadow=0;glass=0;comic=0;strokeColor=#666666;fillColor=#f5f5f5;fontSize=12;align=center;fontColor=#333333;" vertex="1" parent="7G_PbEm9kd98VSfMIWQv-1">
          <mxGeometry x="450" y="200" width="100" height="60" as="geometry" />
        </mxCell>
        <mxCell id="7G_PbEm9kd98VSfMIWQv-6" value="DIP:&lt;br style=&quot;font-size: 12px;&quot;&gt;Dependency Inversion Principle" style="rounded=0;whiteSpace=wrap;html=1;shadow=0;glass=0;comic=0;strokeColor=#666666;fillColor=#f5f5f5;fontSize=12;align=center;fontColor=#333333;" vertex="1" parent="7G_PbEm9kd98VSfMIWQv-1">
          <mxGeometry x="560" y="200" width="100" height="60" as="geometry" />
        </mxCell>
        <mxCell id="Wme40enz_oUWNpX5_eNP-3" value="Title/Page" style="" visible="0" parent="7G_PbEm9kd98VSfMIWQv-0" />
        <mxCell id="Wme40enz_oUWNpX5_eNP-4" value="" style="group;fontSize=10;" vertex="1" connectable="0" parent="Wme40enz_oUWNpX5_eNP-3">
          <mxGeometry x="120" y="120" width="560" height="35" as="geometry" />
        </mxCell>
        <mxCell id="Wme40enz_oUWNpX5_eNP-5" value="&lt;font style=&quot;font-size: 12px&quot;&gt;Base Logical Module - Development - Object Oriented (OO) Development Patterns - SOLID&lt;/font&gt;" style="text;strokeColor=none;fillColor=none;html=1;fontSize=24;fontStyle=1;verticalAlign=middle;align=left;shadow=0;glass=0;comic=0;opacity=30;fontColor=#808080;" vertex="1" parent="Wme40enz_oUWNpX5_eNP-4">
          <mxGeometry width="560" height="40" as="geometry" />
        </mxCell>
        <mxCell id="Wme40enz_oUWNpX5_eNP-6" value="" style="line;strokeWidth=2;html=1;shadow=0;glass=0;comic=0;fillColor=none;fontSize=10;fontColor=#CCCCCC;labelBackgroundColor=none;strokeColor=#CCCCCC;" vertex="1" parent="Wme40enz_oUWNpX5_eNP-4">
          <mxGeometry y="35" width="560" height="10" as="geometry" />
        </mxCell>
        <mxCell id="zwMZHRrP1kJkzbbcPImp-0" value="SOLID is arguably the most valuable pattern of all for developers to follow." style="text;html=1;strokeColor=none;fillColor=none;align=center;verticalAlign=middle;whiteSpace=wrap;rounded=0;fontFamily=Helvetica;fontSize=12;fontColor=#000000;" vertex="1" parent="Wme40enz_oUWNpX5_eNP-3">
          <mxGeometry x="120" y="170" width="560" height="20" as="geometry" />
        </mxCell>
        <mxCell id="9PYrRsnqoWfD5Mer2_B0-0" value="Title/Diagram" parent="7G_PbEm9kd98VSfMIWQv-0" />
        <mxCell id="9PYrRsnqoWfD5Mer2_B0-2" value="&lt;font style=&quot;font-size: 12px ; font-weight: normal&quot;&gt;&lt;i&gt;Diagram: Development - Object Oriented (OO) Development Patterns - SOLID&lt;/i&gt;&lt;/font&gt;" style="text;strokeColor=none;fillColor=none;html=1;fontSize=24;fontStyle=1;verticalAlign=middle;align=left;shadow=0;glass=0;comic=0;opacity=30;fontColor=#808080;" vertex="1" parent="9PYrRsnqoWfD5Mer2_B0-0">
          <mxGeometry x="120" y="500" width="520" height="20" as="geometry" />
        </mxCell>
      </root>
    </mxGraphModel>
  </diagram>
</mxfile>
